<mxfile host="Electron" modified="2023-05-19T15:26:00.557Z" agent="Mozilla/5.0 (Macintosh; Intel Mac OS X 10_15_7) AppleWebKit/537.36 (KHTML, like Gecko) draw.io/21.2.8 Chrome/112.0.5615.165 Electron/24.2.0 Safari/537.36" etag="yFyLHgZ--p-vNIFXOZx0" version="21.2.8" type="device">
  <diagram name="Page-1" id="OQUiwlIiWm2KO4b9-ayl">
    <mxGraphModel dx="1371" dy="1093" grid="1" gridSize="10" guides="1" tooltips="1" connect="1" arrows="1" fold="1" page="1" pageScale="1" pageWidth="1700" pageHeight="1100" math="0" shadow="0">
      <root>
        <mxCell id="0" />
        <mxCell id="1" parent="0" />
        <mxCell id="gtwFFqV-s7tiyz6SdFuN-1" value="&lt;b&gt;&lt;font style=&quot;font-size: 16px;&quot;&gt;AWS Cloud&lt;/font&gt;&lt;/b&gt;" style="points=[[0,0],[0.25,0],[0.5,0],[0.75,0],[1,0],[1,0.25],[1,0.5],[1,0.75],[1,1],[0.75,1],[0.5,1],[0.25,1],[0,1],[0,0.75],[0,0.5],[0,0.25]];outlineConnect=0;gradientColor=none;html=1;whiteSpace=wrap;fontSize=12;fontStyle=0;container=0;pointerEvents=0;collapsible=0;recursiveResize=0;shape=mxgraph.aws4.group;grIcon=mxgraph.aws4.group_aws_cloud_alt;strokeColor=#232F3E;fillColor=none;verticalAlign=top;align=left;spacingLeft=30;fontColor=#232F3E;dashed=0;" parent="1" vertex="1">
          <mxGeometry x="985" y="130" width="600" height="720" as="geometry" />
        </mxCell>
        <mxCell id="gtwFFqV-s7tiyz6SdFuN-16" style="edgeStyle=orthogonalEdgeStyle;rounded=0;orthogonalLoop=1;jettySize=auto;html=1;" parent="1" source="gtwFFqV-s7tiyz6SdFuN-15" target="gtwFFqV-s7tiyz6SdFuN-2" edge="1">
          <mxGeometry relative="1" as="geometry" />
        </mxCell>
        <mxCell id="gtwFFqV-s7tiyz6SdFuN-19" value="&lt;b&gt;&lt;font style=&quot;font-size: 16px;&quot;&gt;HTTP(80)&lt;/font&gt;&lt;/b&gt;" style="edgeLabel;html=1;align=center;verticalAlign=middle;resizable=0;points=[];" parent="gtwFFqV-s7tiyz6SdFuN-16" vertex="1" connectable="0">
          <mxGeometry x="-0.5657" y="-3" relative="1" as="geometry">
            <mxPoint x="-16" y="-3" as="offset" />
          </mxGeometry>
        </mxCell>
        <mxCell id="gtwFFqV-s7tiyz6SdFuN-15" value="&lt;b&gt;&lt;font style=&quot;font-size: 16px;&quot;&gt;Web Client&lt;/font&gt;&lt;/b&gt;" style="points=[[0.03,0.03,0],[0.5,0,0],[0.97,0.03,0],[1,0.4,0],[0.97,0.745,0],[0.5,1,0],[0.03,0.745,0],[0,0.4,0]];verticalLabelPosition=bottom;sketch=0;html=1;verticalAlign=top;aspect=fixed;align=center;pointerEvents=1;shape=mxgraph.cisco19.workstation;fillColor=#005073;strokeColor=none;" parent="1" vertex="1">
          <mxGeometry x="245" y="664" width="112.5" height="90" as="geometry" />
        </mxCell>
        <mxCell id="3CbsANjCS7P56Y_JCAjE-2" value="&lt;b&gt;&lt;font style=&quot;font-size: 16px;&quot;&gt;Internet&lt;/font&gt;&lt;/b&gt;" style="image;aspect=fixed;perimeter=ellipsePerimeter;html=1;align=center;shadow=0;dashed=0;spacingTop=3;image=img/lib/active_directory/internet_cloud.svg;" parent="1" vertex="1">
          <mxGeometry x="684" y="674" width="95.24" height="60" as="geometry" />
        </mxCell>
        <mxCell id="gtwFFqV-s7tiyz6SdFuN-6" value="&lt;b&gt;&lt;font color=&quot;#000000&quot; style=&quot;font-size: 16px;&quot;&gt;VPC | Default&lt;/font&gt;&lt;/b&gt;" style="points=[[0,0],[0.25,0],[0.5,0],[0.75,0],[1,0],[1,0.25],[1,0.5],[1,0.75],[1,1],[0.75,1],[0.5,1],[0.25,1],[0,1],[0,0.75],[0,0.5],[0,0.25]];outlineConnect=0;gradientColor=none;html=1;whiteSpace=wrap;fontSize=12;fontStyle=0;container=0;pointerEvents=0;collapsible=0;recursiveResize=0;shape=mxgraph.aws4.group;grIcon=mxgraph.aws4.group_vpc;strokeColor=#248814;fillColor=none;verticalAlign=top;align=left;spacingLeft=30;fontColor=#AAB7B8;dashed=0;" parent="1" vertex="1">
          <mxGeometry x="1025" y="170" width="520" height="640" as="geometry" />
        </mxCell>
        <mxCell id="gtwFFqV-s7tiyz6SdFuN-5" value="" style="rounded=0;whiteSpace=wrap;html=1;fillColor=#ffe6cc;strokeColor=none;" parent="1" vertex="1">
          <mxGeometry x="1065" y="201" width="440" height="519" as="geometry" />
        </mxCell>
        <mxCell id="gtwFFqV-s7tiyz6SdFuN-2" value="&lt;b style=&quot;font-size: 16px;&quot;&gt;EC2&lt;br&gt;t2.micro&lt;br&gt;&lt;/b&gt;" style="sketch=0;points=[[0,0,0],[0.25,0,0],[0.5,0,0],[0.75,0,0],[1,0,0],[0,1,0],[0.25,1,0],[0.5,1,0],[0.75,1,0],[1,1,0],[0,0.25,0],[0,0.5,0],[0,0.75,0],[1,0.25,0],[1,0.5,0],[1,0.75,0]];outlineConnect=0;fontColor=#232F3E;gradientColor=#F78E04;gradientDirection=north;fillColor=#D05C17;strokeColor=#ffffff;dashed=0;verticalLabelPosition=bottom;verticalAlign=top;align=center;html=1;fontSize=12;fontStyle=0;aspect=fixed;shape=mxgraph.aws4.resourceIcon;resIcon=mxgraph.aws4.ec2;" parent="1" vertex="1">
          <mxGeometry x="1045" y="659" width="98" height="98" as="geometry" />
        </mxCell>
        <mxCell id="LT1Oh6bRNO6kaMcQur1p-2" value="&lt;b&gt;&lt;font style=&quot;font-size: 16px;&quot;&gt;OS | Amazon Linux 2023&lt;/font&gt;&lt;/b&gt;" style="text;html=1;align=center;verticalAlign=middle;resizable=0;points=[];autosize=1;strokeColor=none;fillColor=none;" parent="1" vertex="1">
          <mxGeometry x="1065" y="201" width="210" height="30" as="geometry" />
        </mxCell>
        <mxCell id="gtwFFqV-s7tiyz6SdFuN-12" value="" style="whiteSpace=wrap;html=1;fillColor=#dae8fc;strokeColor=none;" parent="1" vertex="1">
          <mxGeometry x="1185" y="237" width="290" height="360" as="geometry" />
        </mxCell>
        <mxCell id="gtwFFqV-s7tiyz6SdFuN-11" value="" style="shape=image;verticalLabelPosition=bottom;labelBackgroundColor=default;verticalAlign=top;aspect=fixed;imageAspect=0;image=https://www.docker.com/wp-content/uploads/2022/03/vertical-logo-monochromatic.png;" parent="1" vertex="1">
          <mxGeometry x="1159" y="549" width="153.07" height="131" as="geometry" />
        </mxCell>
        <mxCell id="YZTlMnjweyQQ1HB5Xe5--1" value="" style="shape=image;verticalLabelPosition=bottom;labelBackgroundColor=default;verticalAlign=top;aspect=fixed;imageAspect=0;image=https://cdn.iconscout.com/icon/free/png-256/free-flask-51-285137.png?f=webp&amp;w=256;" parent="1" vertex="1">
          <mxGeometry x="1190.25" y="399" width="120" height="120" as="geometry" />
        </mxCell>
        <mxCell id="YZTlMnjweyQQ1HB5Xe5--2" value="" style="shape=image;verticalLabelPosition=bottom;labelBackgroundColor=default;verticalAlign=top;aspect=fixed;imageAspect=0;image=https://www.ntuclearninghub.com/documents/51786/4216795/Python-Symbol.png/369e410e-a90f-f887-c2dc-61f7ef761476?t=1679043970578;" parent="1" vertex="1">
          <mxGeometry x="1288.29" y="394" width="230.15" height="129.46" as="geometry" />
        </mxCell>
        <mxCell id="3CbsANjCS7P56Y_JCAjE-1" value="" style="shape=image;verticalLabelPosition=bottom;labelBackgroundColor=default;verticalAlign=top;aspect=fixed;imageAspect=0;image=https://cdn.icon-icons.com/icons2/2699/PNG/512/gunicorn_logo_icon_170045.png;" parent="1" vertex="1">
          <mxGeometry x="1190" y="260" width="280" height="140" as="geometry" />
        </mxCell>
        <mxCell id="HyAyMmHqII_x1L_GJuFU-1" value="&lt;b&gt;&lt;font style=&quot;font-size: 16px;&quot;&gt;Container | Tulladew&lt;/font&gt;&lt;/b&gt;" style="text;html=1;align=center;verticalAlign=middle;resizable=0;points=[];autosize=1;strokeColor=none;fillColor=none;" parent="1" vertex="1">
          <mxGeometry x="1185" y="237" width="180" height="30" as="geometry" />
        </mxCell>
      </root>
    </mxGraphModel>
  </diagram>
</mxfile>
